<svg width="32" height="32" viewBox="0 0 32 32" fill="none" xmlns="http://www.w3.org/2000/svg">
<g clip-path="url(#clip0_257_90)">
<path d="M17.3338 26.9175C20.0235 26.5752 22.482 25.2216 24.2096 23.1318C25.9371 21.042 26.8041 18.3728 26.6343 15.6668C26.4645 12.9607 25.2707 10.4208 23.2955 8.5633C21.3203 6.70582 18.7119 5.67015 16.0005 5.66679C13.2858 5.66477 10.6724 6.69791 8.69293 8.55569C6.71345 10.4135 5.5168 12.9561 5.3468 15.6655C5.17681 18.3749 6.04626 21.0472 7.778 23.1378C9.50975 25.2285 11.9735 26.5801 14.6671 26.9175V19.0001H12.0005V16.3335H14.6671V14.1281C14.6671 12.3455 14.8538 11.6988 15.2005 11.0468C15.542 10.4017 16.0698 9.87437 16.7151 9.53346C17.2245 9.26012 17.8578 9.09612 18.9645 9.02546C19.4031 8.99746 19.9711 9.03212 20.6685 9.13212V11.6655H20.0005C18.7778 11.6655 18.2725 11.7228 17.9711 11.8841C17.7913 11.9766 17.645 12.123 17.5525 12.3028C17.3925 12.6041 17.3338 12.9028 17.3338 14.1268V16.3335H20.6671L20.0005 19.0001H17.3338V26.9175ZM16.0005 29.6668C8.63648 29.6668 2.66714 23.6975 2.66714 16.3335C2.66714 8.96946 8.63648 3.00012 16.0005 3.00012C23.3645 3.00012 29.3338 8.96946 29.3338 16.3335C29.3338 23.6975 23.3645 29.6668 16.0005 29.6668Z" fill="white"/>
</g>
<defs>
<clipPath id="clip0_257_90">
<rect width="32" height="32" fill="white"/>
</clipPath>
</defs>
</svg>
