<svg width="32" height="32" viewBox="0 0 32 32" fill="none" xmlns="http://www.w3.org/2000/svg">
<g clip-path="url(#clip0_257_93)">
<path d="M16.0005 12.0001C14.9396 12.0001 13.9222 12.4215 13.1721 13.1717C12.4219 13.9218 12.0005 14.9392 12.0005 16.0001C12.0005 17.061 12.4219 18.0784 13.1721 18.8285C13.9222 19.5787 14.9396 20.0001 16.0005 20.0001C17.0613 20.0001 18.0788 19.5787 18.8289 18.8285C19.5791 18.0784 20.0005 17.061 20.0005 16.0001C20.0005 14.9392 19.5791 13.9218 18.8289 13.1717C18.0788 12.4215 17.0613 12.0001 16.0005 12.0001ZM16.0005 9.33342C17.7686 9.33342 19.4643 10.0358 20.7145 11.286C21.9648 12.5363 22.6671 14.232 22.6671 16.0001C22.6671 17.7682 21.9648 19.4639 20.7145 20.7141C19.4643 21.9644 17.7686 22.6668 16.0005 22.6668C14.2324 22.6668 12.5367 21.9644 11.2864 20.7141C10.0362 19.4639 9.33381 17.7682 9.33381 16.0001C9.33381 14.232 10.0362 12.5363 11.2864 11.286C12.5367 10.0358 14.2324 9.33342 16.0005 9.33342ZM24.6671 9.00008C24.6671 9.44211 24.4916 9.86603 24.179 10.1786C23.8664 10.4912 23.4425 10.6667 23.0005 10.6667C22.5585 10.6667 22.1345 10.4912 21.822 10.1786C21.5094 9.86603 21.3338 9.44211 21.3338 9.00008C21.3338 8.55805 21.5094 8.13413 21.822 7.82157C22.1345 7.50901 22.5585 7.33342 23.0005 7.33342C23.4425 7.33342 23.8664 7.50901 24.179 7.82157C24.4916 8.13413 24.6671 8.55805 24.6671 9.00008ZM16.0005 5.33342C12.7018 5.33342 12.1631 5.34275 10.6285 5.41075C9.58315 5.46008 8.88181 5.60008 8.23115 5.85342C7.65248 6.07742 7.23515 6.34542 6.79115 6.79075C6.37382 7.19395 6.05295 7.68619 5.85248 8.23075C5.59915 8.88408 5.45915 9.58408 5.41115 10.6281C5.34181 12.1001 5.33381 12.6147 5.33381 16.0001C5.33381 19.2988 5.34315 19.8374 5.41115 21.3721C5.46048 22.4161 5.60048 23.1188 5.85248 23.7681C6.07915 24.3481 6.34581 24.7654 6.78848 25.2081C7.23781 25.6561 7.65515 25.9241 8.22848 26.1454C8.88715 26.4001 9.58848 26.5414 10.6285 26.5894C12.1005 26.6588 12.6151 26.6668 16.0005 26.6668C19.2991 26.6668 19.8378 26.6574 21.3725 26.5894C22.4151 26.5401 23.1178 26.4001 23.7685 26.1481C24.3458 25.9228 24.7658 25.6548 25.2085 25.2121C25.6578 24.7628 25.9258 24.3454 26.1472 23.7721C26.4005 23.1148 26.5418 22.4121 26.5898 21.3721C26.6591 19.9001 26.6672 19.3854 26.6672 16.0001C26.6672 12.7014 26.6578 12.1628 26.5898 10.6281C26.5405 9.58542 26.4005 8.88142 26.1472 8.23075C25.9462 7.68675 25.6259 7.1947 25.2098 6.79075C24.8068 6.37321 24.3145 6.0523 23.7698 5.85208C23.1165 5.59875 22.4151 5.45875 21.3725 5.41075C19.9005 5.34142 19.3858 5.33342 16.0005 5.33342ZM16.0005 2.66675C19.6231 2.66675 20.0751 2.68008 21.4965 2.74675C22.9165 2.81341 23.8831 3.03608 24.7338 3.36675C25.6138 3.70542 26.3552 4.16408 27.0965 4.90408C27.7745 5.57061 28.2991 6.37687 28.6338 7.26675C28.9632 8.11608 29.1872 9.08408 29.2538 10.5041C29.3165 11.9254 29.3338 12.3774 29.3338 16.0001C29.3338 19.6228 29.3205 20.0748 29.2538 21.4961C29.1872 22.9161 28.9632 23.8828 28.6338 24.7334C28.3001 25.6238 27.7753 26.4302 27.0965 27.0961C26.4298 27.7738 25.6236 28.2984 24.7338 28.6334C23.8845 28.9628 22.9165 29.1868 21.4965 29.2534C20.0751 29.3161 19.6231 29.3334 16.0005 29.3334C12.3778 29.3334 11.9258 29.3201 10.5045 29.2534C9.08448 29.1868 8.11781 28.9628 7.26715 28.6334C6.37691 28.2994 5.57051 27.7747 4.90448 27.0961C4.22635 26.4297 3.70172 25.6234 3.36715 24.7334C3.03648 23.8841 2.81381 22.9161 2.74714 21.4961C2.68448 20.0748 2.66714 19.6228 2.66714 16.0001C2.66714 12.3774 2.68048 11.9254 2.74714 10.5041C2.81381 9.08275 3.03648 8.11742 3.36715 7.26675C3.70079 6.37632 4.22555 5.56984 4.90448 4.90408C5.57071 4.22572 6.37705 3.70105 7.26715 3.36675C8.11781 3.03608 9.08315 2.81341 10.5045 2.74675C11.9258 2.68408 12.3778 2.66675 16.0005 2.66675Z" fill="white"/>
</g>
<defs>
<clipPath id="clip0_257_93">
<rect width="32" height="32" fill="white"/>
</clipPath>
</defs>
</svg>
