<svg width="32" height="32" viewBox="0 0 32 32" fill="none" xmlns="http://www.w3.org/2000/svg">
<g clip-path="url(#clip0_257_87)">
<path d="M16.0005 26.6666C18.8295 26.6666 21.5426 25.5428 23.543 23.5424C25.5433 21.542 26.6672 18.8289 26.6672 16C26.6672 13.171 25.5433 10.4579 23.543 8.45749C21.5426 6.4571 18.8295 5.33329 16.0005 5.33329C13.1715 5.33329 10.4584 6.4571 8.45801 8.45749C6.45762 10.4579 5.33381 13.171 5.33381 16C5.33381 18.8289 6.45762 21.542 8.45801 23.5424C10.4584 25.5428 13.1715 26.6666 16.0005 26.6666ZM16.0005 29.3333C8.63648 29.3333 2.66714 23.364 2.66714 16C2.66714 8.63596 8.63648 2.66663 16.0005 2.66663C23.3645 2.66663 29.3338 8.63596 29.3338 16C29.3338 23.364 23.3645 29.3333 16.0005 29.3333ZM11.8538 17.56L8.52315 16.5213C7.80315 16.3013 7.79915 15.8053 8.68448 15.4493L21.6618 10.436C22.4151 10.1293 22.8418 10.5173 22.5978 11.4893L20.3885 21.916C20.2338 22.6586 19.7871 22.836 19.1671 22.4933L15.7658 19.976L14.1805 21.5066C14.0178 21.664 13.8858 21.7986 13.6351 21.832C13.3858 21.8666 13.1805 21.792 13.0298 21.3786L11.8698 17.5506L11.8538 17.5613V17.56Z" fill="white"/>
</g>
<defs>
<clipPath id="clip0_257_87">
<rect width="32" height="32" fill="white"/>
</clipPath>
</defs>
</svg>
