<svg width="47" height="42" viewBox="0 0 47 42" fill="none" xmlns="http://www.w3.org/2000/svg">
<g clip-path="url(#clip0_381_384)">
<path d="M42.5494 42.2276C42.5494 42.7946 42.3243 43.3383 41.9237 43.7392C41.523 44.14 40.9796 44.3652 40.413 44.3652H10.504C9.93735 44.3652 9.39396 44.14 8.99331 43.7392C8.59267 43.3383 8.36759 42.7946 8.36759 42.2276V22.9894H1.9585L24.0207 2.92177C24.4141 2.56368 24.9267 2.36523 25.4585 2.36523C25.9903 2.36523 26.5029 2.56368 26.8963 2.92177L48.9585 22.9894H42.5494V42.2276ZM25.4585 35.8149L32.6345 28.6348C33.0809 28.1881 33.435 27.6579 33.6765 27.0744C33.9181 26.4909 34.0424 25.8655 34.0424 25.2339C34.0424 24.6023 33.9181 23.9768 33.6765 23.3933C33.435 22.8098 33.0809 22.2796 32.6345 21.833C32.1882 21.3864 31.6583 21.0321 31.0751 20.7904C30.4919 20.5487 29.8668 20.4243 29.2356 20.4243C28.6043 20.4243 27.9793 20.5487 27.3961 20.7904C26.8129 21.0321 26.283 21.3864 25.8366 21.833L25.4585 22.2113L25.0804 21.833C24.634 21.3864 24.1041 21.0321 23.5209 20.7904C22.9377 20.5487 22.3127 20.4243 21.6814 20.4243C21.0502 20.4243 20.4251 20.5487 19.8419 20.7904C19.2587 21.0321 18.7288 21.3864 18.2825 21.833C17.8361 22.2796 17.482 22.8098 17.2405 23.3933C16.9989 23.9768 16.8746 24.6023 16.8746 25.2339C16.8746 25.8655 16.9989 26.4909 17.2405 27.0744C17.482 27.6579 17.8361 28.1881 18.2825 28.6348L25.4585 35.8149Z" fill="white"/>
</g>
<defs>
<clipPath id="clip0_381_384">
<rect width="47" height="42" fill="white"/>
</clipPath>
</defs>
</svg>
