<svg width="43" height="38" viewBox="0 0 43 38" fill="none" xmlns="http://www.w3.org/2000/svg">
<g clip-path="url(#clip0_381_413)">
<path d="M25.0833 15.8333V22.1667H17.9167V15.8333H25.0833ZM28.6667 15.8333H37.625V22.1667H28.6667V15.8333ZM25.0833 33.25H17.9167V25.3333H25.0833V33.25ZM28.6667 33.25V25.3333H37.625V31.6667C37.625 32.0866 37.4362 32.4893 37.1002 32.7863C36.7642 33.0832 36.3085 33.25 35.8333 33.25H28.6667ZM25.0833 4.75V12.6667H17.9167V4.75H25.0833ZM28.6667 4.75H35.8333C36.3085 4.75 36.7642 4.91681 37.1002 5.21375C37.4362 5.51068 37.625 5.91341 37.625 6.33333V12.6667H28.6667V4.75ZM14.3333 15.8333V22.1667H5.375V15.8333H14.3333ZM14.3333 33.25H7.16667C6.69149 33.25 6.23577 33.0832 5.89977 32.7863C5.56376 32.4893 5.375 32.0866 5.375 31.6667V25.3333H14.3333V33.25ZM14.3333 4.75V12.6667H5.375V6.33333C5.375 5.91341 5.56376 5.51068 5.89977 5.21375C6.23577 4.91681 6.69149 4.75 7.16667 4.75H14.3333Z" fill="white"/>
</g>
<defs>
<clipPath id="clip0_381_413">
<rect width="43" height="38" fill="white"/>
</clipPath>
</defs>
</svg>
