<svg width="43" height="38" viewBox="0 0 43 38" fill="none" xmlns="http://www.w3.org/2000/svg">
<g clip-path="url(#clip0_381_395)">
<path d="M21.4998 30.0835H25.0832V9.50013L36.5391 13.8385C36.8616 13.9606 37.1364 14.1638 37.3294 14.4228C37.5224 14.6817 37.6252 14.985 37.6248 15.2951V30.0835H41.2082V33.2501H1.7915V30.0835H5.37484V8.94596C5.37479 8.63961 5.47532 8.33983 5.66422 8.08296C5.85312 7.8261 6.12229 7.62317 6.43909 7.4988L20.2403 2.07746C20.3768 2.02386 20.5264 2.00128 20.6753 2.01179C20.8242 2.0223 20.9678 2.06556 21.093 2.13763C21.2182 2.2097 21.321 2.3083 21.392 2.42444C21.4631 2.54059 21.5002 2.6706 21.4998 2.80263V30.0835Z" fill="white"/>
</g>
<defs>
<clipPath id="clip0_381_395">
<rect width="43" height="38" fill="white"/>
</clipPath>
</defs>
</svg>
