<svg width="43" height="38" viewBox="0 0 43 38" fill="none" xmlns="http://www.w3.org/2000/svg">
<path d="M34.9922 14.7778C35.7644 16.2251 37.0349 17.2841 38.5269 17.7243C40.0188 18.1644 41.6114 17.9499 42.9575 17.1274C43.1159 18.6551 42.829 20.1981 42.1371 21.5415C41.4451 22.8848 40.3824 23.9616 39.0971 24.6219L39.0951 38H27.3671V33.7778C27.3685 32.1292 26.7748 30.545 25.7119 29.3617C24.649 28.1785 23.2009 27.4894 21.6751 27.4411C20.1494 27.3927 18.6663 27.9888 17.541 29.1026C16.4157 30.2165 15.7369 31.7604 15.6488 33.4062L15.639 33.7778V38H3.91098V24.624C2.62314 23.9647 1.5581 22.8874 0.864595 21.5427C0.171089 20.198 -0.116258 18.6529 0.0426835 17.1232C1.38874 17.9473 2.98188 18.1632 4.47472 17.7238C5.96756 17.2845 7.23903 16.2255 8.01189 14.7778H34.9922ZM31.3468 0C31.4866 1.04732 31.8331 2.04999 32.3627 2.94018C32.8924 3.83036 33.5929 4.58729 34.4169 5.15976C35.2409 5.73223 36.1691 6.10687 37.1387 6.25835C38.1084 6.40983 39.0969 6.33461 40.0373 6.03778C39.8699 7.78699 39.1304 9.41439 37.9516 10.6275C36.7729 11.8406 35.2322 12.5599 33.6064 12.6561L33.2311 12.6667H9.775C8.0822 12.667 6.44941 11.9894 5.19228 10.765C3.93514 9.54065 3.14295 7.85636 2.96883 6.03778C3.90923 6.33461 4.8977 6.40983 5.86734 6.25835C6.83699 6.10687 7.76521 5.73223 8.58919 5.15976C9.41317 4.58729 10.1137 3.83036 10.6434 2.94018C11.173 2.04999 11.5195 1.04732 11.6593 0H31.3468Z" fill="white"/>
</svg>
